<svg xmlns="http://www.w3.org/2000/svg" viewBox="0 0 1424.5 573.2">
    <path d="M604 46.7c11.2-.2 22.3-.5 33.4.6.1 130.2.1 260.4-.2 390.5 0 12.2-8.3 20.8-20.5 21.2-29-.2-55.1.1-89.4.1-16.7-.4-33.4-.1-50-.2h-96.4c-.1-11.1.1-22 .2-33.1l18.2-.1c-18.8-33.1-23.9-73.1-16.2-110.2 4-19.7 12.2-38.4 22.5-55.5 16.9-27.8 41.5-51.7 71.7-64.2 32.9-13.4 68.8-16.9 104-16.8 0 11.5.3 22.9.3 34.7-26.2-.4-53.1-.4-78.1 8.2-13 4.7-25.6 10.8-36.6 19.2-28.3 21.5-46.8 54.8-51.8 89.8-3.2 22-.8 44.9 7.8 65.5 4.1 10.5 10.1 20.1 16.4 29.4 9.3-.2 18.6 0 27.9-.2-18.9-20.9-31.6-48.3-31.8-76.7.5-14.2 2-28.6 7.3-41.9 6.7-17.6 18.3-33.3 33.2-44.9 12-10.1 26.5-16.8 41.6-20.8 20.8-5.5 42.4-6.4 63.8-6.3 0 11.3.7 22.8.7 34.7-20.3.3-41.2-.6-60.9 5.5-17.2 5.3-32.5 17.1-41.3 32.9-8.9 15.8-12 34.6-9 52.5 5.1 31.7 31.6 58.4 62.9 64.9 22.3 1.8 44.6.6 66.9.8 1.3-1.9 2.7-3.9 2.8-6.3.9-7.7.6-15.4.6-23.1 0-116.8-.2-233.5 0-350.2zm53.3 465.4h49.1" fill="#ffba00"/>
    <path d="M707 512.1V480h-23.2c2.6-7.9 5.3-16.3 6.7-24.6 4.6 0 10.5-.1 15.2 0v-35.2c-3.9-.1-8.7.1-12.6.1.4-124.3.2-248.7.2-373-11.1-1.2-22.2-.6-33.3-.6-.3 130.7-.3 261.4 0 392.1.5 17.3-10.6 34.6-27 40.7-7.2 2.9-10.2 1.7-17.8 2.2-27.3 0-59.5.9-86.9 0l-148.1.1c-.1 10.9-.1 21.6 0 32.5 42.8 0 87.3.1 130.1.1l196.1-2.3" fill="#ffba00"/>
    <path d="M171.3 171.9c13.8-2.9 28-3.5 42-3.4 46 .8 91.4 22.1 121 57.4 7.7 9.4 14.9 19.5 18.8 31.1 4.8 13.7 5.9 28.5 5.2 42.9-.6 10.4-1.3 20.9-5.1 30.7-12 32.1-44.8 54.5-78.8 55.7-34.2-.5-68.4-.2-102.5-.2-.1-10.9-.2-21.8.4-32.7 35.7-.1 71.5.4 107.2-.2 9.2-.3 17.9-4.6 24.7-10.7 9.1-8.2 15.1-19.3 19.2-30.7 4.9-13.5 3.4-28.6-1.8-41.8-4.2-11.2-11.6-20.8-19.6-29.5-15.4-16.6-35.3-29.2-57.2-34.9-30.8-8.3-64.3-5.6-93.6 6.8-29.1 12-53.6 34.4-67.8 62.4-22.5 44.3-20.9 100.3 5.3 142.7 14.1 23 36.2 40.7 61.1 51 21.3 9 44.5 13.2 67.6 13.4 39.8 0 81.4.1 121.2-.1.1 10.8.2 21.7 0 32.5-30.8-.2-63.4-.1-94.2-.1-18.8-.2-37.8.7-56.5-2-36.7-5-72.6-19.7-100.3-44.6-21.2-18.5-36.5-43.2-45-69.9-10.2-31.8-11.2-66.4-3.4-98.9 7-29.2 21.6-56.9 42.9-78.1 23.8-25 55.5-42.1 89.2-48.8z" fill="#0067c3"/>
    <path d="M157 234.4c25.8-12.1 55.9-13.1 83.3-6.2 19.2 6 37.8 16.3 50.2 32.5 6.4 8.4 10.9 18.4 11.6 29 1 12-1.8 25.3-11 33.9-3.5 3-7.7 6.1-12.6 6-35.5 1.3-71.1 0-106.6.6-.2-10.9-.2-21.8.3-32.7 33.9-.3 67.9-.2 101.9-.8-4.8-14.1-17.1-23.7-29.6-30.7-31.5-14.7-72.4-9.5-97.1 15.8-13.9 13.2-22.1 32-23.4 51.1-.6 11.6-.8 23.5 2.7 34.8 4.4 16 14.9 30 28.4 39.6 15 10.8 33.3 16.1 51.6 18 10.2 1.2 20.6.8 30.8.8 33.1 0 67.9 0 101-.3.1 11 .1 22.1 0 33.1-44.1-.3-89.9-.1-134-.3-20.9-.3-41.6-6.5-59.3-17.5-10.5-6.4-19.6-14.9-27.8-24.1-14.8-17.2-23.6-39.1-26.2-61.6-2.6-23.7.8-48.5 12.2-69.7 11.8-22.2 31-40.4 53.6-51.3z" fill="#0067c3"/>
    <path d="M752.8 420.2c57.6-.1 101 0 158.6-.1 8 0 16.1.3 23.9-1.6 5.4-3.1 8.5-9.6 8.3-15.7-.2-6.5-5.4-11.9-11.3-14.2-6.1-2-12.5-2.4-18.9-2.3-32.7-.6-65.4.9-98.1-.8-47.3-6.7-87.6-48.1-92.5-95.7-1.4-17.8.9-36.1 8.3-52.5 13.5-30.4 41.1-54 73.1-62.8 7.2-2 14.6-3.3 22.1-3 64.4-.4 125.4.3 189.8.9v30.9l-165.1.4c-9.7-.2-20.7-.4-30.3 1.1-5.6 1-9.7 3-15 5.1-17.4 6.7-32.2 19.7-41 36.1-2.7 5-5.2 10.4-5.6 16.1-1.7 15.1-2.7 31 3.3 45.3 9.8 21.4 29.8 38.2 52.9 43.3 8.5 2 17.3 1.6 26 1.6 26.4.3 52.7-.2 79.1.1 6 .1 12.1 0 17.9 1.8 23.5 6.4 40.9 30.9 38.3 55.3-.7 9.6-5.6 18.2-11.6 25.5-9.5 11.4-23.5 19.6-38.6 20.1-64.3-.1-109.6.3-173.9.3l-.1-35.2h.4z" fill="#00a9ff"/>
    <path d="M753.3 480c0 10.7-.1 21.4 0 32.1 63.8-.4 128.4-.4 192.2-.3 13.4-.5 26.5-4.4 38.5-10.3 14.2-6.8 26.4-17.4 36.7-29.2 11.8-13.7 20.9-30.2 23.7-48.3 1.3-7.3.8-14.7 1.2-22 .5-14.2-2.9-28.5-8.9-41.4-14.3-30.5-42.8-53.9-75.4-62.4-15.6-4-31.9-4.1-47.8-3.7-14 .6-28 .7-42 1.3-11 .4-22.1 1.2-33-.8-4.2-.8-8.6-2.4-10.8-6.4-3.7-4.8-4.7-11.6-1.6-17 2.8-7.3 11.6-8.3 18.3-8.7 61.9.5 112.3-.1 174.2 0v-34.6c-58.5-.3-105.7-.6-164.2-.5-6.7.1-13.5-.5-20.1 1.1-17.3 3.8-32.4 16.4-39.1 32.8-3.8 8.8-4.6 18.9-2.2 28.2 5.3 21 24.4 38.5 46.3 40.1 34 .6 68-.4 102 .4 32.8 1.1 61.6 27.2 69.2 58.6 4.1 16.2 1 33.7-6.8 48.3-13.5 25.2-41.7 41.8-70.3 41.1L754 480" fill="#00a9ff"/>
    <path d="M1072.6 203.3l.1-30.9c31.4.5 68.5.3 99.9 0 21-.1 42-1.4 63.1-.6 25 .7 50.3-1.9 75 2.9 25.3 5 47.1 25.4 52.9 50.6 2.6 12.2 5.3 24.5 5.7 37.1 0 83.2-.1 167.8.1 251-12.3 0-23 .1-34.5.4-1.6-80.1-.2-160.2-.8-240.3-.1-11 1.4-22.1-.8-33-2.1-10.6-8.2-20.6-17.5-26.3-9.9-6.2-21.7-8.4-33.2-8.3-23 0-46-.4-69 .2-32.5 1.2-63.6 16.2-86.8 38.6-11.2 10.7-20.6 23.4-28.1 36.9-19.2 35.5-19.6 79.9-2.8 116.3 13.1 28.8 35.3 54 64 68.1 10.1 4.8 20.8 8.8 31.8 10.7 20.5 3.8 43.2 2.8 63.9 3.1 0 11.1.8 22.8.8 33.8-13.2.1-27.6-.6-40.8-1.3-9.2-.7-18.6-.6-27.7-2.7-19.9-3.6-40-9.4-56.9-20.8-11.5-8-22.7-16.5-32.4-26.7-26.1-27.3-43-63.3-47.7-100.7-4.4-33.8 1.9-69.1 19.7-98.4h-1.7l-.2-34.7 30.5-.1c10.1-9 22-17 32.9-24.9" fill="#ce3e3c"/>
    <path d="M1197.4 231.8c24.3-5.2 49.4-2.6 74-3.4 9.6 0 19.6.2 28.6 4 7.7 4.5 10.6 14 10.6 22.4 0 86.1 0 173 .1 259.2-11.2 0-22 .1-33 0-.5-83.6.2-167.1-.4-250.7-24.7.3-49.7-3.5-74 2.2-16.8 3.6-31.5 13.7-42.9 26.4-8.1 9.3-14.6 20.4-17.3 32.5-1.2 14.6-2.6 29.6.8 44.1 3.5 15.4 14.1 28.1 26.3 37.7 12.2 9.6 27.5 14.2 42.7 16.5 13.7 1.8 28.7.8 42.4 1.2 0 10.8.6 22.4.6 33.4-24.2 2.1-49.1 1.2-72.4-6.5-12.5-4-24.2-10.4-34.7-18.2-21.8-16.4-36.7-41.5-40.9-68.4-1.5-9.4-1.2-18.9-1.2-28.3 1.4-32.3 19.8-62.1 44.9-81.7 13.4-10.7 29-19 45.8-22.4z" fill="#ce3e3c"/>
    <linearGradient id="a" gradientUnits="userSpaceOnUse" x1="1015.144" y1="103.892" x2="1073.643" y2="103.892" gradientTransform="translate(0 84)">
        <stop offset="0" stop-color="#00a9ff"/>
        <stop offset="1" stop-color="#ce3e3c"/>
    </linearGradient>
    <path d="M1015.1 172.4h58.5v30.9h-58.5v-30.9z" fill="url(#a)"/>
    <linearGradient id="b" gradientUnits="userSpaceOnUse" x1="1011.644" y1="161.692" x2="1070.143" y2="161.692" gradientTransform="translate(0 84)">
        <stop offset="0" stop-color="#00a9ff"/>
        <stop offset="1" stop-color="#ce3e3c"/>
    </linearGradient>
    <path d="M1011.6 228.3h58.5V263h-58.5v-34.7z" fill="url(#b)"/>
    <linearGradient id="c" gradientUnits="userSpaceOnUse" x1="705.043" y1="353.842" x2="752.644" y2="353.842" gradientTransform="translate(0 84)">
        <stop offset="0" stop-color="#ffba00"/>
        <stop offset=".999" stop-color="#00a9ff"/>
    </linearGradient>
    <path d="M705 420.2h47.6v35.2H705v-35.2z" fill="url(#c)"/>
    <linearGradient id="d" gradientUnits="userSpaceOnUse" x1="706.443" y1="412.092" x2="754.043" y2="412.092" gradientTransform="translate(0 84)">
        <stop offset="0" stop-color="#ffba00"/>
        <stop offset=".999" stop-color="#00a9ff"/>
    </linearGradient>
    <path d="M706.4 480H754v32.1h-47.6V480z" fill="url(#d)"/>
    <linearGradient id="e" gradientUnits="userSpaceOnUse" x1="336.844" y1="358.392" x2="383.144" y2="358.392" gradientTransform="translate(0 84)">
        <stop offset="0" stop-color="#0067c3"/>
        <stop offset=".999" stop-color="#ffba00"/>
    </linearGradient>
    <path d="M336.8 425.8h46.3v33.1h-46.3v-33.1z" fill="url(#e)"/>
    <linearGradient id="f" gradientUnits="userSpaceOnUse" x1="335.743" y1="414.092" x2="382.043" y2="414.092" gradientTransform="translate(0 84)">
        <stop offset="0" stop-color="#0067c3"/>
        <stop offset=".999" stop-color="#ffba00"/>
    </linearGradient>
    <path d="M335.7 481.8H382v32.5h-46.3v-32.5z" fill="url(#f)"/>
</svg>
